<?xml version="1.0" encoding="utf-8"?>
<!-- Generator: Adobe Illustrator 22.0.0, SVG Export Plug-In . SVG Version: 6.00 Build 0)  -->
<svg version="1.1" id="Layer_1" xmlns="http://www.w3.org/2000/svg" xmlns:xlink="http://www.w3.org/1999/xlink" x="0px" y="0px"
	 viewBox="0 0 1442 329.8" style="enable-background:new 0 0 1442 329.8;" xml:space="preserve">
<style type="text/css">
	.st0{fill:#FFFFFF;}
</style>
<path class="st0" d="M148.1,15.1L55.7,68.4c-74.3,42.9-74.3,150.1,0,193l92.4,53.3c74.3,42.9,167.1-10.7,167.1-96.5V111.6
	C315.2,25.8,222.3-27.8,148.1,15.1z M300.6,173.5L116,280.1c-6.6-3.8-8.2-4.8-14.8-8.6V58.3c6.6-3.8,8.2-4.8,14.8-8.6l184.6,106.6
	C300.6,164,300.6,165.9,300.6,173.5z"/>
<g>
	<g>
		<path class="st0" d="M357.2,132.7h11.5v31.2h36.6v-31.2h11.6v74.7h-11.6v-33.5h-36.6v33.5h-11.5V132.7z"/>
		<path class="st0" d="M449.8,132.7h12.4l28,74.7h-12.5l-6.2-18h-31.2l-6.2,18H422L449.8,132.7z M468.3,179.7L456,143.4h-0.2
			l-12.1,36.3H468.3z"/>
		<path class="st0" d="M495.3,132.7h49.9v9.9h-38.4v17.8h19.7c15.5,0,24.9,8.2,24.9,23.1c0,14.7-9.8,23.9-25.9,23.9h-30.2V132.7z
			 M525.8,197.5c8.4,0,13.6-5.3,13.6-14c0-7.9-4.8-13.2-12.6-13.2h-19.9v27.1H525.8z"/>
		<path class="st0" d="M558.7,132.7h11.5v57.1h0.2l38.7-57.1h11.6v74.7h-11.6v-57h-0.2l-38.7,57h-11.5V132.7z"/>
		<path class="st0" d="M632.9,132.7H664c14.1,0,24.4,6.6,24.4,22.2c0,15.7-10.3,22.1-24.4,22.1h-19.6v30.3h-11.5V132.7z
			 M663.5,167.2c8.7,0,13.1-3.9,13.1-12.2c0-8.5-4.4-12.3-13.1-12.3h-19.1v24.5H663.5z"/>
		<path class="st0" d="M709.4,132.7h12.4l28,74.7h-12.5l-6.2-18h-31.2l-6.2,18h-12.1L709.4,132.7z M727.8,179.7l-12.2-36.3h-0.2
			l-12.1,36.3H727.8z"/>
		<path class="st0" d="M754.9,132.7h52.8v9.9h-41.3v21.2h36.2v9.9h-36.2v23.7h42.4v9.9h-53.9V132.7z"/>
		<path class="st0" d="M816.9,132.7H832l21.5,58.7h0.2l21.6-58.7h15.1v74.7h-11.3v-58H879l-20.6,58H849l-20.6-58h-0.2v58h-11.3
			V132.7z"/>
		<g>
			<path class="st0" d="M949.8,176.1h-7v31.3h-9.4v-74.7h9.4V166h7.1l21.8-33.3H982l-24.7,37.5l26.4,37.2h-11.8L949.8,176.1z"/>
			<path class="st0" d="M978.1,170c0-22.4,14.3-38.7,36.6-38.7c22.3,0,36.6,16.3,36.6,38.7s-14.3,38.8-36.6,38.8
				C992.4,208.8,978.1,192.4,978.1,170z M1014.8,198.9c17.6,0,24.6-13.6,24.6-28.9c0-15.3-7-28.8-24.6-28.8
				c-17.6,0-24.6,13.5-24.6,28.8C990.1,185.3,997.1,198.9,1014.8,198.9z"/>
			<path class="st0" d="M1060,132.7h15.1l21.5,58.7h0.2l21.6-58.7h15.1v74.7h-11.3v-58h-0.2l-20.6,58h-9.5l-20.6-58h-0.2v58H1060
				V132.7z"/>
			<path class="st0" d="M1166.6,132.7h12.4l28,74.7h-12.5l-6.2-18h-31.2l-6.2,18h-12.1L1166.6,132.7z M1185.1,179.7l-12.2-36.3h-0.2
				l-12.1,36.3H1185.1z"/>
			<path class="st0" d="M1212.1,132.7h11.5v31.2h36.6v-31.2h11.6v74.7h-11.6v-33.5h-36.6v33.5h-11.5V132.7z"/>
			<path class="st0" d="M1277,197.6h5.4c6,0,7.6-5.3,8.2-18.8l2.1-46h45.2v64.8h8.7V221H1336v-13.5h-48.2V221H1277V197.6z
				 M1326.5,197.6v-54.9h-22.7l-2.1,40.4c-0.3,7.3-1.9,11.4-4.3,14.3v0.2H1326.5z"/>
			<path class="st0" d="M1367.3,185.6l-24.2-52.8h12l18.2,40.5h0.2l19.4-40.5h11.5l-36,74.7h-11.5L1367.3,185.6z"/>
		</g>
	</g>
</g>
</svg>
