<?xml version="1.0" encoding="utf-8"?>
<!-- Generator: Adobe Illustrator 22.0.0, SVG Export Plug-In . SVG Version: 6.00 Build 0)  -->
<svg version="1.1" id="Layer_1" xmlns="http://www.w3.org/2000/svg" xmlns:xlink="http://www.w3.org/1999/xlink" x="0px" y="0px"
	 viewBox="0 0 1387.9 382.4" style="enable-background:new 0 0 1387.9 382.4;" xml:space="preserve">
<style type="text/css">
	.st0{fill:#FFFFFF;}
</style>
<path class="st0" d="M154.2,21.9L58,77.4c-77.3,44.6-77.3,156.2,0,200.9l96.2,55.5c77.3,44.6,173.9-11.1,173.9-100.4V122.3
	C328.1,33,231.4-22.7,154.2,21.9z M312.9,186.8L120.7,297.7c-6.9-4-8.5-5-15.4-9V66.9c6.9-4,8.5-5,15.4-9l192.1,110.9
	C312.9,176.9,312.9,178.8,312.9,186.8z"/>
<g>
	<path class="st0" d="M415.9,18.3h23.2v63.1h74.1V18.3h23.4v150.9h-23.4v-67.7h-74.1v67.7h-23.2V18.3z"/>
	<path class="st0" d="M550.1,141.3c0-24.1,18.1-31.2,45-36.3c16.9-3.2,27.2-5.3,27.2-15.8c0-7.8-4.6-14.4-20.5-14.4
		c-18.8,0-24.5,5.9-25.5,20.3h-21.1c1.1-20.7,14.6-36.9,47.5-36.9c22.2,0,39.9,9.3,39.9,37.1v49.4c0,7.8,1.1,11.8,5.1,11.8
		c0.6,0,1.3,0,2.5-0.2V169c-3.6,0.8-7.2,1.3-10.6,1.3c-10.3,0-15.8-4-17.1-16.3h-0.4c-7,11.2-19.2,18.2-36.7,18.2
		C563.8,172.2,550.1,159.7,550.1,141.3z M590,155.5c18.6,0,32.3-9.5,32.3-28.3v-15.4c-3.4,3.2-12.7,5.5-23.6,7.8
		c-19,3.8-27,9.1-27,20.3C571.7,150,577.1,155.5,590,155.5z"/>
	<path class="st0" d="M657.8,105.9c0-38,10.6-69.9,43.9-75.6l21.1-3.6c13.3-2.5,16.2-5.9,16.2-8.7h20.3c0,15.8-11.4,22.2-25.1,24.9
		l-29.5,5.5c-16.9,3-26.2,16.2-28.7,34.6h0.4c5.7-13.5,21.3-24.9,40.9-24.9c27.6,0,44.5,21.9,44.5,56.1c0,32.5-17.7,58-50.9,58
		C678.7,172.4,657.8,150.4,657.8,105.9z M710.9,155.3c19.6,0,29.3-18.8,29.3-40.9s-9.7-38.8-29.3-38.8c-20,0-30,17.7-30,39.9
		S690.9,155.3,710.9,155.3z"/>
	<path class="st0" d="M774.3,61.6h20.7v78.7l57.4-78.7H873v107.6h-20.7V90.5l-57.4,78.7h-20.7V61.6z"/>
	<path class="st0" d="M912.1,155.9h-0.4v50.6H891v-145h20.7v12.7h0.4c5.9-7.6,16.2-15.8,33.1-15.8c27.4,0,48.3,21.5,48.3,57
		c0,35.5-20.9,56.8-48.3,56.8C928.3,172.2,918,164.6,912.1,155.9z M941.8,155.1c20.3,0,30-18.6,30-39.7c0-21.1-9.7-39.7-30-39.7
		c-18.6,0-30,15.2-30,39.7C911.8,139.7,923.2,155.1,941.8,155.1z"/>
	<path class="st0" d="M1000.5,141.3c0-24.1,18.1-31.2,45-36.3c16.9-3.2,27.2-5.3,27.2-15.8c0-7.8-4.6-14.4-20.5-14.4
		c-18.8,0-24.5,5.9-25.5,20.3h-21.1c1.1-20.7,14.6-36.9,47.5-36.9c22.2,0,39.9,9.3,39.9,37.1v49.4c0,7.8,1.1,11.8,5.1,11.8
		c0.6,0,1.3,0,2.5-0.2V169c-3.6,0.8-7.2,1.3-10.6,1.3c-10.3,0-15.8-4-17.1-16.3h-0.4c-7,11.2-19.2,18.2-36.7,18.2
		C1014.2,172.2,1000.5,159.7,1000.5,141.3z M1040.4,155.5c18.6,0,32.3-9.5,32.3-28.3v-15.4c-3.4,3.2-12.7,5.5-23.6,7.8
		c-19,3.8-27,9.1-27,20.3C1022,150,1027.5,155.5,1040.4,155.5z"/>
	<path class="st0" d="M1106.2,115.2c0-33.8,20.3-57,53.2-57c32.7,0,51.1,21.5,51.1,54.9c0,3,0,6.1-0.2,7.8h-82.7
		c0.4,17.9,11,34.6,32.3,34.6c19,0,26.4-12.2,28.3-19.4h21.1c-5.7,20.7-21.5,36.3-49.8,36.3C1125.2,172.4,1106.2,148.1,1106.2,115.2
		z M1188.9,104.6c0-16.9-11.8-29.5-30.2-29.5c-17.3,0-30,11.8-31.2,29.5H1188.9z"/>
	<path class="st0" d="M1222.7,61.6h24.7l35.7,80.6h0.4l36.1-80.6h23.4v107.6h-20.9V97h-0.4l-31.4,72h-16l-30.4-72h-0.4v72.2h-20.7
		V61.6z"/>
	<path class="st0" d="M446.5,294.1h-13.3v44.3h-20.7V230.8h20.7v46h13.9l34-46h24.3l-40.7,53.6l42.6,54h-26L446.5,294.1z"/>
	<path class="st0" d="M500.7,284.6c0-33.6,20.3-57.2,54-57.2c33.3,0,53.6,23.4,53.6,57c0,33.8-20.3,57.2-53.8,57.2
		C521,341.6,500.7,318.4,500.7,284.6z M554.8,324.5c21.9,0,32.1-17.5,32.1-39.9c0-22.6-10.1-39.9-32.1-39.9
		c-22.4,0-32.5,17.3-32.5,39.9C522.3,307,532.4,324.5,554.8,324.5z"/>
	<path class="st0" d="M620.6,230.8h24.7l35.7,80.6h0.4l36.1-80.6h23.4v107.6H720v-72.2h-0.4l-31.4,72h-16l-30.4-72h-0.4v72.2h-20.7
		V230.8z"/>
	<path class="st0" d="M753.1,310.6c0-24.1,18.1-31.2,45-36.3c16.9-3.2,27.2-5.3,27.2-15.8c0-7.8-4.6-14.4-20.5-14.4
		c-18.8,0-24.5,5.9-25.5,20.3h-21.1c1.1-20.7,14.6-36.9,47.5-36.9c22.2,0,39.9,9.3,39.9,37.1v49.4c0,7.8,1.1,11.8,5.1,11.8
		c0.6,0,1.3,0,2.5-0.2v12.7c-3.6,0.8-7.2,1.3-10.6,1.3c-10.3,0-15.8-4-17.1-16.3h-0.4c-7,11.2-19.2,18.2-36.7,18.2
		C766.9,341.4,753.1,328.9,753.1,310.6z M793,324.7c18.6,0,32.3-9.5,32.3-28.3V281c-3.4,3.2-12.7,5.5-23.6,7.8
		c-19,3.8-27,9.1-27,20.3C774.7,319.2,780.2,324.7,793,324.7z"/>
	<path class="st0" d="M939.3,292.2h-53.2v46.2h-20.7V230.8h20.7v44.3h53.2v-44.3H960v107.6h-20.7V292.2z"/>
	<path class="st0" d="M967.8,321.3h8.4c7.2,0,11.6-7.4,12.2-17.7l4.4-72.8h75.1v90.5h14.8v44.5H1064v-27.4h-77.5v27.4h-18.8V321.3z
		 M1047.1,321.3v-73.4h-34.8l-3.4,54.9c-0.4,8.2-1.9,14.1-5.3,18.1v0.4H1047.1z"/>
	<path class="st0" d="M1089.8,374.7v-16.9c3.6,0.4,5.5,0.6,8.9,0.6c8.2,0,17.9-4.2,22.2-21.1l-43.5-106.6h22.6l31.4,82.3h0.4
		l29.5-82.3h21.7L1140.4,341c-10.3,26.6-20.7,35.2-37.4,35.2C1098.4,376.2,1095.2,375.8,1089.8,374.7z"/>
</g>
</svg>
