<?xml version="1.0" encoding="utf-8"?>
<!-- Generator: Adobe Illustrator 22.0.0, SVG Export Plug-In . SVG Version: 6.00 Build 0)  -->
<svg version="1.1" id="Layer_1" xmlns="http://www.w3.org/2000/svg" xmlns:xlink="http://www.w3.org/1999/xlink" x="0px" y="0px"
	 viewBox="0 0 1387.9 382.4" style="enable-background:new 0 0 1387.9 382.4;" xml:space="preserve">
<style type="text/css">
	.st0{fill:#FFFFFF;}
</style>
<path class="st0" d="M149.9,26.6L56.4,80.5c-75.2,43.4-75.2,151.9,0,195.3l93.5,53.9c75.2,43.4,169.1-10.8,169.1-97.7V124.2
	C319,37.4,225-16.9,149.9,26.6z M304.2,186.9L117.4,294.8c-6.7-3.8-8.3-4.9-15-8.7V70.3c6.7-3.8,8.3-4.9,15-8.7l186.8,107.9
	C304.2,177.3,304.2,179.2,304.2,186.9z"/>
<g>
	<path class="st0" d="M404.4,23.1H427v61.4h72V23.1h22.8v146.7h-22.8v-65.9h-72v65.9h-22.6V23.1z"/>
	<path class="st0" d="M535,142.7c0-23.4,17.6-30.4,43.7-35.3c16.4-3.1,26.5-5.1,26.5-15.4c0-7.6-4.5-14-19.9-14
		c-18.3,0-23.8,5.7-24.8,19.7h-20.5c1-20.1,14.2-35.9,46.2-35.9c21.5,0,38.8,9,38.8,36.1v48c0,7.6,1,11.5,4.9,11.5
		c0.6,0,1.2,0,2.5-0.2v12.3c-3.5,0.8-7,1.2-10.3,1.2c-10.1,0-15.4-3.9-16.6-15.8H605c-6.8,10.9-18.7,17.7-35.7,17.7
		C548.3,172.7,535,160.6,535,142.7z M573.8,156.5c18.1,0,31.4-9.2,31.4-27.5v-15c-3.3,3.1-12.3,5.3-23,7.6
		c-18.5,3.7-26.3,8.8-26.3,19.7C555.9,151.1,561.2,156.5,573.8,156.5z"/>
	<path class="st0" d="M639.6,108.2c0-36.9,10.3-67.9,42.7-73.5l20.5-3.5c12.9-2.5,15.8-5.7,15.8-8.4h19.7
		c0,15.4-11.1,21.5-24.4,24.2l-28.7,5.3c-16.4,2.9-25.4,15.8-27.9,33.7h0.4c5.5-13.1,20.7-24.2,39.8-24.2
		c26.9,0,43.3,21.3,43.3,54.6c0,31.6-17.2,56.4-49.5,56.4C660,172.9,639.6,151.5,639.6,108.2z M691.4,156.3
		c19.1,0,28.5-18.3,28.5-39.8s-9.4-37.8-28.5-37.8c-19.5,0-29.1,17.2-29.1,38.8S671.9,156.3,691.4,156.3z"/>
	<path class="st0" d="M752.9,65.1H773v76.5l55.8-76.5H849v104.7h-20.1V93.3L773,169.8h-20.1V65.1z"/>
	<path class="st0" d="M886.9,156.9h-0.4v49.3h-20.1v-141h20.1v12.3h0.4c5.7-7.4,15.8-15.4,32.2-15.4c26.7,0,47,20.9,47,55.4
		c0,34.5-20.3,55.2-47,55.2C902.7,172.7,892.7,165.3,886.9,156.9z M915.9,156.1c19.7,0,29.1-18.1,29.1-38.6
		c0-20.5-9.4-38.6-29.1-38.6c-18.1,0-29.1,14.8-29.1,38.6C886.7,141.1,897.8,156.1,915.9,156.1z"/>
	<path class="st0" d="M972.9,142.7c0-23.4,17.6-30.4,43.7-35.3c16.4-3.1,26.5-5.1,26.5-15.4c0-7.6-4.5-14-19.9-14
		c-18.3,0-23.8,5.7-24.8,19.7h-20.5c1-20.1,14.2-35.9,46.2-35.9c21.5,0,38.8,9,38.8,36.1v48c0,7.6,1,11.5,4.9,11.5
		c0.6,0,1.2,0,2.5-0.2v12.3c-3.5,0.8-7,1.2-10.3,1.2c-10.1,0-15.4-3.9-16.6-15.8h-0.4c-6.8,10.9-18.7,17.7-35.7,17.7
		C986.3,172.7,972.9,160.6,972.9,142.7z M1011.7,156.5c18.1,0,31.4-9.2,31.4-27.5v-15c-3.3,3.1-12.3,5.3-23,7.6
		c-18.5,3.7-26.3,8.8-26.3,19.7C993.9,151.1,999.2,156.5,1011.7,156.5z"/>
	<path class="st0" d="M1075.7,117.3c0-32.8,19.7-55.4,51.7-55.4c31.8,0,49.7,20.9,49.7,53.4c0,2.9,0,6-0.2,7.6h-80.4
		c0.4,17.4,10.7,33.7,31.4,33.7c18.5,0,25.7-11.9,27.5-18.9h20.5c-5.5,20.1-20.9,35.3-48.4,35.3
		C1094.2,172.9,1075.7,149.3,1075.7,117.3z M1156.2,107c0-16.4-11.5-28.7-29.3-28.7c-16.8,0-29.1,11.5-30.4,28.7H1156.2z"/>
	<path class="st0" d="M1189,65.1h24l34.7,78.4h0.4l35.1-78.4h22.8v104.7h-20.3V99.6h-0.4l-30.6,70h-15.6l-29.6-70h-0.4v70.2H1189
		V65.1z"/>
	<path class="st0" d="M434.2,291.3h-12.9v43.1h-20.1V229.7h20.1v44.7h13.5l33-44.7h23.6l-39.6,52.1l41.5,52.5h-25.2L434.2,291.3z"/>
	<path class="st0" d="M486.9,282c0-32.6,19.7-55.6,52.5-55.6c32.4,0,52.1,22.8,52.1,55.4c0,32.8-19.7,55.6-52.3,55.6
		C506.7,337.4,486.9,314.9,486.9,282z M539.5,320.8c21.3,0,31.2-17,31.2-38.8c0-22-9.9-38.8-31.2-38.8c-21.8,0-31.6,16.8-31.6,38.8
		C507.9,303.8,517.7,320.8,539.5,320.8z"/>
	<path class="st0" d="M603.5,229.7h24l34.7,78.4h0.4l35.1-78.4h22.8v104.7h-20.3v-70.2h-0.4l-30.6,70h-15.6l-29.6-70h-0.4v70.2
		h-20.1V229.7z"/>
	<path class="st0" d="M732.4,307.3c0-23.4,17.6-30.4,43.7-35.3c16.4-3.1,26.5-5.1,26.5-15.4c0-7.6-4.5-14-19.9-14
		c-18.3,0-23.8,5.7-24.8,19.7h-20.5c1-20.1,14.2-35.9,46.2-35.9c21.5,0,38.8,9,38.8,36.1v48c0,7.6,1,11.5,4.9,11.5
		c0.6,0,1.2,0,2.5-0.2v12.3c-3.5,0.8-7,1.2-10.3,1.2c-10.1,0-15.4-3.9-16.6-15.8h-0.4c-6.8,10.9-18.7,17.7-35.7,17.7
		C745.7,337.2,732.4,325.1,732.4,307.3z M771.2,321c18.1,0,31.4-9.2,31.4-27.5v-15c-3.3,3.1-12.3,5.3-23,7.6
		c-18.5,3.7-26.3,8.8-26.3,19.7C753.3,315.7,758.7,321,771.2,321z"/>
	<path class="st0" d="M913.4,289.4h-51.7v44.9h-20.1V229.7h20.1v43.1h51.7v-43.1h20.1v104.7h-20.1V289.4z"/>
	<path class="st0" d="M941.1,317.7h8.2c7,0,11.3-7.2,11.9-17.2l4.3-70.8h73.1v88h14.4V361h-18.3v-26.7h-75.3V361h-18.3V317.7z
		 M1018.3,317.7v-71.4h-33.9l-3.3,53.4c-0.4,8-1.8,13.8-5.1,17.6v0.4H1018.3z"/>
	<path class="st0" d="M1059.7,369.7v-16.4c3.5,0.4,5.3,0.6,8.6,0.6c8,0,17.4-4.1,21.5-20.5l-42.3-103.6h22l30.6,80h0.4l28.7-80h21.1
		L1109,336.8c-10.1,25.9-20.1,34.3-36.3,34.3C1068.1,371.1,1065.1,370.7,1059.7,369.7z"/>
</g>
</svg>
