<?xml version="1.0" encoding="utf-8"?>
<!-- Generator: Adobe Illustrator 22.0.0, SVG Export Plug-In . SVG Version: 6.00 Build 0)  -->
<svg version="1.1" id="Layer_1" xmlns="http://www.w3.org/2000/svg" xmlns:xlink="http://www.w3.org/1999/xlink" x="0px" y="0px"
	 viewBox="0 0 435.7 206.1" style="enable-background:new 0 0 435.7 206.1;" xml:space="preserve">
<style type="text/css">
	.st0{fill:#0D8CF1;}
	.st1{fill-rule:evenodd;clip-rule:evenodd;fill:url(#SVGID_1_);}
	.st2{fill:#FFFFFF;}
</style>
<path class="st0" d="M194.6,0.1H11.4C5.1,0.1,0,5.2,0,11.4v183.3c0,6.3,5.1,11.4,11.4,11.4H110v-79.8H83.2V95.2H110V72.3
	c0-26.6,16.2-41.1,40-41.1c11.4,0,21.1,0.8,24,1.2v27.8l-16.5,0c-12.9,0-15.4,6.1-15.4,15.1v19.9h30.8l-4,31.1h-26.8v79.8h52.5
	c6.3,0,11.4-5.1,11.4-11.4V11.4C206,5.2,200.9,0.1,194.6,0.1z"/>
<g>
	<linearGradient id="SVGID_1_" gradientUnits="userSpaceOnUse" x1="332.6479" y1="3.4809" x2="332.6479" y2="200.2851">
		<stop  offset="0" style="stop-color:#FEC053"/>
		<stop  offset="0.3273" style="stop-color:#F2203E"/>
		<stop  offset="0.6485" style="stop-color:#B729A8"/>
		<stop  offset="1" style="stop-color:#5342D6"/>
	</linearGradient>
	<path class="st1" d="M274.9,0h115.4c24.9,0,45.4,20.4,45.4,45.4v115.3c0,25-20.4,45.5-45.4,45.5H274.9c-24.9,0-45.4-20.4-45.4-45.5
		V45.4C229.6,20.4,250,0,274.9,0L274.9,0z"/>
	<g>
		<g>
			<path class="st2" d="M362.9,173.2h-60.4c-22,0-39.9-17.9-39.9-39.9V72.8c0-22,17.9-39.9,39.9-39.9h60.4c22,0,39.9,17.9,39.9,39.9
				v60.4C402.8,155.3,384.9,173.2,362.9,173.2z M302.4,44.9c-15.4,0-27.9,12.5-27.9,27.9v60.4c0,15.4,12.5,27.9,27.9,27.9h60.4
				c15.4,0,27.9-12.5,27.9-27.9V72.8c0-15.4-12.5-27.9-27.9-27.9H302.4z"/>
		</g>
		<g>
			<path class="st2" d="M332.6,139c-19.8,0-35.9-16.1-35.9-35.9c0-19.8,16.1-35.9,35.9-35.9c19.8,0,35.9,16.1,35.9,35.9
				C368.6,122.9,352.5,139,332.6,139z M332.6,79.2c-13.2,0-23.9,10.7-23.9,23.9c0,13.2,10.7,23.9,23.9,23.9
				c13.2,0,23.9-10.7,23.9-23.9C356.5,89.9,345.8,79.2,332.6,79.2z"/>
		</g>
		<g>
			<path class="st2" d="M378.8,65.1c0,4.8-3.9,8.6-8.6,8.6c-4.8,0-8.6-3.9-8.6-8.6c0-4.8,3.9-8.6,8.6-8.6
				C374.9,56.5,378.8,60.3,378.8,65.1z"/>
		</g>
	</g>
</g>
</svg>
