<?xml version="1.0" encoding="utf-8"?>
<!-- Generator: Adobe Illustrator 22.0.0, SVG Export Plug-In . SVG Version: 6.00 Build 0)  -->
<svg version="1.1" id="Layer_1" xmlns="http://www.w3.org/2000/svg" xmlns:xlink="http://www.w3.org/1999/xlink" x="0px" y="0px"
	 viewBox="0 0 233.5 121.2" style="enable-background:new 0 0 233.5 121.2;" xml:space="preserve">
<style type="text/css">
	.st0{fill:#FFFFFF;}
	.st1{fill:#28334A;}
	.st2{fill:url(#SVGID_1_);}
</style>
<rect class="st0" width="233.5" height="121.2"/>
<g>
	<g>
		<path class="st1" d="M98.1,48.4h8.1c3.9,0,6.8,1,8.8,3c2,2,3,4.8,3,8.4v2c0,3.6-1,6.4-3,8.4c-2,2-5,3-8.8,3h-8.1V48.4z
			 M102.4,52.2v17.2h3.9c2.4,0,4.3-0.6,5.5-1.9c1.2-1.2,1.9-3.2,1.9-5.8v-2c0-2.6-0.6-4.5-1.9-5.7c-1.2-1.3-3.1-1.9-5.5-1.9H102.4z"
			/>
		<path class="st1" d="M129.4,73.5c-2.7,0-4.7-0.8-6.2-2.3c-1.5-1.5-2.2-3.6-2.2-6.3v-1.1c0-1.3,0.2-2.5,0.6-3.6
			c0.4-1.1,1-2,1.7-2.7c0.7-0.7,1.6-1.3,2.7-1.7c1-0.4,2.2-0.6,3.5-0.6c2.7,0,4.7,0.8,6.2,2.3c1.5,1.5,2.2,3.6,2.2,6.3v1.1
			c0,1.3-0.2,2.5-0.6,3.6c-0.4,1.1-1,2-1.7,2.7c-0.7,0.7-1.6,1.3-2.7,1.7C131.8,73.3,130.7,73.5,129.4,73.5z M129.4,69.7
			c1.3,0,2.4-0.4,3.1-1.2c0.7-0.8,1.1-2,1.1-3.6v-1.1c0-1.6-0.4-2.8-1.1-3.6c-0.7-0.8-1.8-1.2-3.1-1.2c-1.3,0-2.4,0.4-3.1,1.2
			c-0.7,0.8-1.1,2-1.1,3.6v1.1c0,1.6,0.4,2.8,1.1,3.6C127.1,69.3,128.1,69.7,129.4,69.7z"/>
		<path class="st1" d="M142.9,71.7c-1-1-1.5-2.4-1.5-4.3V48.4h4.1v18.5c0,0.9,0.2,1.6,0.6,2c0.4,0.4,1,0.6,1.8,0.6h0.9v3.6h-1.6
			C145.3,73.2,143.9,72.7,142.9,71.7z"/>
		<path class="st1" d="M160.7,73.5c-2.2,0-3.9-0.7-5.2-2.1v8.8h-4.1V55.5h3.2l0.4,2.4c0.6-0.9,1.4-1.6,2.3-2c1-0.4,2.1-0.7,3.3-0.7
			c1,0,1.9,0.2,2.8,0.5c0.9,0.4,1.6,0.9,2.2,1.6c0.6,0.7,1.1,1.6,1.4,2.7c0.4,1.1,0.5,2.3,0.5,3.7v1.1c0,1.4-0.2,2.7-0.5,3.7
			c-0.4,1.1-0.8,2-1.5,2.7c-0.6,0.7-1.4,1.3-2.2,1.6C162.7,73.3,161.7,73.5,160.7,73.5z M159.5,69.7c1.2,0,2.2-0.4,2.9-1.1
			c0.7-0.8,1-2,1-3.6v-1.1c0-1.6-0.4-2.8-1.1-3.6c-0.7-0.8-1.7-1.2-2.9-1.2c-1.1,0-2.1,0.4-2.8,1.2c-0.7,0.8-1.1,1.9-1.1,3.4v1.3
			c0,1.6,0.4,2.7,1.1,3.6C157.4,69.3,158.3,69.7,159.5,69.7z"/>
		<path class="st1" d="M171.2,48.4h4.1V57c1.2-1.2,2.8-1.8,4.9-1.8c2.2,0,3.9,0.6,5.1,1.9c1.2,1.3,1.8,3.2,1.8,5.8v10.2H183V62.9
			c0-1.3-0.3-2.3-0.9-2.9c-0.6-0.7-1.5-1-2.6-1c-1.3,0-2.3,0.3-3,1c-0.7,0.7-1.1,1.6-1.2,2.7v10.4h-4.1V48.4z"/>
		<path class="st1" d="M193.8,53.4c-0.8,0-1.4-0.3-1.9-0.8c-0.5-0.5-0.8-1.1-0.8-1.9c0-0.8,0.3-1.4,0.8-1.9c0.5-0.5,1.1-0.8,1.9-0.8
			c0.7,0,1.4,0.3,1.9,0.8c0.5,0.5,0.8,1.1,0.8,1.9c0,0.8-0.3,1.4-0.8,1.9C195.1,53.1,194.5,53.4,193.8,53.4z M191.7,55.5h4.1v17.7
			h-4.1V55.5z"/>
		<path class="st1" d="M200.6,55.5h3.2l0.3,2c1.3-1.5,3.1-2.3,5.5-2.3c2.2,0,3.9,0.6,5.1,1.9c1.2,1.3,1.8,3.2,1.8,5.8v10.2h-4.1
			V62.9c0-1.3-0.3-2.3-0.9-2.9c-0.6-0.7-1.5-1-2.6-1c-1.3,0-2.3,0.3-3,1c-0.7,0.7-1.1,1.6-1.2,2.7v10.4h-4.1V55.5L200.6,55.5z"/>
	</g>
	<g>
		
			<linearGradient id="SVGID_1_" gradientUnits="userSpaceOnUse" x1="48.5582" y1="-55.0493" x2="48.5582" y2="9.0782" gradientTransform="matrix(1 0 0 -1 0 38)">
			<stop  offset="0" style="stop-color:#0062E0"/>
			<stop  offset="1" style="stop-color:#19AFFF"/>
		</linearGradient>
		<path class="st2" d="M16.7,60.6c0-31.9,0-31.9,31.9-31.9c31.9,0,31.9,0,31.9,31.9s0,31.9-31.9,31.9C16.7,92.5,16.7,92.5,16.7,60.6
			z"/>
		<path class="st0" d="M61.7,59.3V62c0,4.9-1.4,8.7-4.2,11.5c-2.8,2.7-6.8,4.1-12,4.1h-8.9c2.3-1,3.5-3.2,3.5-6.5v-5.1
			c0-1.4,0.3-2.4,0.9-3c0.6-0.6,1.3-1,2.2-1.1v-2.4c-0.9-0.1-1.6-0.5-2.2-1.1c-0.6-0.6-0.9-1.6-0.9-3v-5.1c0-3.3-1.2-5.5-3.5-6.5
			h8.9c5.3,0,9.3,1.3,12.1,4C60.3,50.4,61.7,54.3,61.7,59.3z"/>
	</g>
</g>
</svg>
