<?xml version="1.0" encoding="utf-8"?>
<!-- Generator: Adobe Illustrator 22.0.0, SVG Export Plug-In . SVG Version: 6.00 Build 0)  -->
<svg version="1.1" id="Layer_1" xmlns="http://www.w3.org/2000/svg" xmlns:xlink="http://www.w3.org/1999/xlink" x="0px" y="0px"
	 viewBox="0 0 1200 800" style="enable-background:new 0 0 1200 800;" xml:space="preserve">
<style type="text/css">
	.st0{fill:#36F0CC;}
	.st1{fill:#FFFFFF;}
	.st2{fill:#121212;}
</style>
<rect class="st0" width="1200" height="800"/>
<g>
	<path class="st1" d="M492.7,948.5c-2.4-13.5-13.2-21.3-27-21.3c-18.5,0-31.6,14.2-31.6,39.8c0,26,13.2,39.8,31.5,39.8
		c13.5,0,24.4-7.5,27-20.8l20.7,0.1c-3.1,21.6-21,39.1-48,39.1c-29.9,0-51.9-21.6-51.9-58.2s22.3-58.2,51.9-58.2
		c25.1,0,44.5,14.6,48,39.8H492.7z M520,999.7c0-19.1,15.8-24.1,32.3-25.8c15-1.6,21-1.9,21-7.6v-0.3c0-8.4-5.1-13.1-14.4-13.1
		c-9.8,0-15.4,5-17.4,10.8l-18.7-2.6c4.4-15.5,18.1-23.5,36-23.5c16.2,0,34.5,6.7,34.5,29.2v56.9h-19.2v-11.7h-0.7
		c-3.7,7.1-11.6,13.4-25,13.4C532.3,1025.2,520,1016.4,520,999.7L520,999.7z M573.3,993v-10c-2.6,2.1-13.1,3.4-18.4,4.2
		c-9,1.3-15.7,4.5-15.7,12.2c0,7.4,6,11.2,14.3,11.2C565.7,1010.5,573.4,1002.5,573.3,993L573.3,993z M655,963
		c-1.5-5.6-6.4-10.6-15.6-10.6c-8.4,0-14.7,4-14.7,9.7c-0.1,4.9,3.4,7.9,12,9.8l14.5,3.1c16,3.5,23.8,10.9,23.9,23
		c0,16.1-15,27.1-36.3,27.1c-20.8,0-34-9.2-36.5-24.8l19.5-1.9c1.7,7.7,7.7,11.7,16.9,11.7c9.5,0,15.8-4.4,15.8-10.2
		c0-4.8-3.7-8-11.5-9.7l-14.5-3c-16.3-3.4-24-11.6-23.9-24c-0.1-15.7,13.9-25.8,34.3-25.8c19.9,0,31.4,9.2,34.2,23.6L655,963z
		 M683.5,915.7c0-6,5.2-10.9,11.6-10.9s11.6,4.9,11.6,10.9c0,6-5.2,10.8-11.6,10.8S683.5,921.6,683.5,915.7z M685,938.5h20v85h-20
		V938.5z M739.7,1023.5h-20v-85h19.1V953h1c3.9-9.5,12.6-15.5,25.3-15.5c17.5,0,29.2,11.6,29.1,32v54.1h-20v-51
		c0-11.3-6.2-18.2-16.5-18.2c-10.6,0-18,7.1-18,19.4L739.7,1023.5L739.7,1023.5z M804,981.4c0-26.3,15.8-43.9,40.7-43.9
		s40.7,17.6,40.7,43.9s-15.8,43.8-40.7,43.8S804,1007.6,804,981.4z M865.2,981.3c0-15.5-6.7-28-20.3-28c-13.8,0-20.5,12.5-20.5,28
		s6.8,27.8,20.5,27.8C858.4,1009.1,865.2,996.9,865.2,981.3z M973.1,948.5c-2.4-13.5-13.2-21.3-26.9-21.3
		c-18.5,0-31.6,14.2-31.6,39.8c0,26,13.2,39.8,31.5,39.8c13.6,0,24.4-7.5,27-20.8l20.7,0.1c-3.2,21.6-21,39.1-48,39.1
		c-29.9,0-51.9-21.6-51.9-58.2s22.3-58.2,51.9-58.2c25.1,0,44.5,14.6,48,39.8L973.1,948.5z M1001.3,981.4
		c0-26.3,15.8-43.9,40.7-43.9s40.7,17.6,40.7,43.9s-15.8,43.8-40.7,43.8S1001.3,1007.6,1001.3,981.4z M1062.4,981.3
		c0-15.5-6.8-28-20.3-28c-13.8,0-20.5,12.5-20.5,28s6.8,27.8,20.5,27.8C1055.7,1009.1,1062.4,996.9,1062.4,981.3z M1091.2,915.6
		c0-6,5.2-10.9,11.6-10.9c6.4,0,11.6,4.9,11.6,10.9c0,6-5.2,10.8-11.6,10.8S1091.2,921.6,1091.2,915.6z M1092.8,938.5h20v85h-20
		V938.5z M1147.5,1023.5h-20v-85h19.1V953h1c3.9-9.5,12.6-15.5,25.3-15.5c17.5,0,29.2,11.6,29.1,32v54.1h-20v-51
		c0-11.3-6.2-18.2-16.5-18.2c-10.6,0-18,7.1-18,19.4V1023.5L1147.5,1023.5z M292.9,874.1c-50.2,0-90.9,40.7-90.9,90.9
		c0,50.2,40.7,90.9,90.9,90.9s90.9-40.7,90.9-90.9c0,0,0,0,0,0C383.7,914.8,343,874.2,292.9,874.1z M349.8,908.7l5.4-5.7
		c10.8,10.8,18.5,24.3,22.5,39l-7.7,1.9c-3.3,0.7-6.7-0.8-8.6-3.7L348.7,918C347.1,915,347.5,911.3,349.8,908.7z M292.9,877.1
		c7.6,0,15.2,1,22.5,2.9l-2.2,7.6c-1.1,3.2-4.1,5.4-7.5,5.5h-25.6c-3.4-0.1-6.4-2.4-7.5-5.6l-2.2-7.5
		C277.7,878.1,285.3,877.1,292.9,877.1z M230.6,903.1l5.4,5.6c2.2,2.6,2.7,6.2,1.1,9.3l-12.9,22.2c-1.8,2.9-5.2,4.3-8.6,3.7L208,942
		C212,927.3,219.8,913.8,230.6,903.1L230.6,903.1z M236,1021.3l-5.4,5.7c-10.8-10.8-18.6-24.2-22.6-38.9l7.7-1.9
		c3.3-0.7,6.7,0.8,8.6,3.7l12.8,22.2C238.6,1015,238.2,1018.7,236,1021.3z M292.9,1052.9c-7.6,0-15.2-1-22.5-2.9l2.2-7.6
		c1.1-3.2,4.1-5.4,7.5-5.6h25.6c3.4,0.2,6.4,2.4,7.5,5.6l2.2,7.6C308.1,1051.9,300.5,1052.9,292.9,1052.9L292.9,1052.9z
		 M292.9,1030.9c-36.4,0-65.9-29.5-65.9-65.9c0-36.4,29.5-65.9,65.9-65.9c36.4,0,65.9,29.5,65.9,65.9c0,0,0,0,0,0
		C358.8,1001.4,329.3,1030.9,292.9,1030.9L292.9,1030.9L292.9,1030.9z M355.2,1027l-5.4-5.7c-2.2-2.6-2.7-6.2-1.1-9.3l12.8-22.2
		c1.8-2.9,5.2-4.3,8.6-3.7l7.7,1.9C373.7,1002.7,366,1016.2,355.2,1027L355.2,1027z"/>
	<path class="st1" d="M292.9,904.5c-33.4,0-60.5,27.1-60.5,60.5s27.1,60.5,60.5,60.5s60.5-27.1,60.5-60.5c0,0,0,0,0,0
		C353.3,931.6,326.3,904.5,292.9,904.5z M327.1,993.5c-0.5,0.7-1.3,1.1-2.2,1l-27.4-5.3c-0.8-0.2-1.1,0.3-0.6,1l14.5,21
		c0.5,0.7,0.2,1.2-0.6,1.2h-35.6c-0.8,0-1.1-0.5-0.6-1.2l14.5-21c0.5-0.7,0.2-1.1-0.6-1l-26.9,5.2c-0.9,0.1-1.7-0.3-2.2-1
		l-10.9-18.6c-0.4-0.8-0.3-1.7,0.2-2.5l43.5-54.2c0.4-0.5,1.1-0.6,1.6-0.2c0.1,0.1,0.2,0.2,0.2,0.2l43.4,54c0.5,0.7,0.6,1.7,0.2,2.5
		L327.1,993.5z"/>
</g>
<g id="XMLID_48_">
	<g>
		<g id="XMLID_441_">
			<g>
				<g id="XMLID_460_">
					<path id="XMLID_462_" class="st2" d="M426,343h-56.9c-1.6,0-3.1,0.6-4.2,1.7l-28,28c-1.1,1.1-1.7,2.6-1.7,4.2v37.8
						c0,1.1,0.9,2,2,2h17.7c1.1,0,2-0.9,2-2v-44.2c0-3.3,2.6-5.9,5.9-5.9h69.7c3.3,0,5.9,2.6,5.9,5.9v44.2c0,1.1,0.9,2,2,2h17.7
						c1.1,0,2-0.9,2-2v-37.8c0-1.6-0.6-3.1-1.7-4.2l-28-28C429,343.6,427.5,343,426,343z"/>
					<path id="XMLID_461_" class="st2" d="M426,281.5h-56.9c-1.6,0-3.1,0.6-4.2,1.7l-28,28c-1.1,1.1-1.7,2.6-1.7,4.2v23.9
						c0,1.1,0.9,2,2,2h17.7c1.1,0,2-0.9,2-2V309c0-3.3,2.6-5.9,5.9-5.9h69.7c3.3,0,5.9,2.6,5.9,5.9v30.3c0,1.1,0.9,2,2,2h17.7
						c1.1,0,2-0.9,2-2v-23.9c0-1.6-0.6-3.1-1.7-4.2l-28-28C429,282.1,427.5,281.5,426,281.5z"/>
				</g>
				<g id="XMLID_457_">
					<path id="XMLID_459_" class="st2" d="M203.5,281.5H173c-1.6,0-3.1,0.6-4.2,1.7l-28,28c-1.1,1.1-1.7,2.6-1.7,4.2v99.3
						c0,1.1,0.9,2,2,2h17.7c1.1,0,2-0.9,2-2V309c0-3.3,2.6-5.9,5.9-5.9h43.2c3.3,0,5.9,2.6,5.9,5.9v105.6c0,1.1,0.9,2,2,2h17.7
						c1.1,0,2-0.9,2-2v-99.3c0-1.6-0.6-3.1-1.7-4.2l-28-28C206.5,282.1,205,281.5,203.5,281.5z"/>
					<path id="XMLID_458_" class="st2" d="M313.4,311.2l-28-28c-1.1-1.1-2.6-1.7-4.2-1.7h-39.6c-1.1,0-2,0.9-2,2v17.7
						c0,1.1,0.9,2,2,2h45.9c3.3,0,5.9,2.6,5.9,5.9v105.6c0,1.1,0.9,2,2,2h17.7c1.1,0,2-0.9,2-2v-99.3
						C315.1,313.8,314.5,312.3,313.4,311.2z"/>
				</g>
				<g id="XMLID_454_">
					<path id="XMLID_456_" class="st2" d="M1017.4,343h-56.9c-1.6,0-3.1,0.6-4.2,1.7l-28,28c-1.1,1.1-1.7,2.6-1.7,4.2v37.8
						c0,1.1,0.9,2,2,2h17.7c1.1,0,2-0.9,2-2v-44.2c0-3.3,2.6-5.9,5.9-5.9h69.7c3.3,0,5.9,2.6,5.9,5.9v44.2c0,1.1,0.9,2,2,2h17.7
						c1.1,0,2-0.9,2-2v-37.8c0-1.6-0.6-3.1-1.7-4.2l-28-28C1020.4,343.6,1019,343,1017.4,343z"/>
					<path id="XMLID_455_" class="st2" d="M1017.4,281.5h-56.9c-1.6,0-3.1,0.6-4.2,1.7l-28,28c-1.1,1.1-1.7,2.6-1.7,4.2v23.9
						c0,1.1,0.9,2,2,2h17.7c1.1,0,2-0.9,2-2V309c0-3.3,2.6-5.9,5.9-5.9h69.7c3.3,0,5.9,2.6,5.9,5.9v30.3c0,1.1,0.9,2,2,2h17.7
						c1.1,0,2-0.9,2-2v-23.9c0-1.6-0.6-3.1-1.7-4.2l-28-28C1020.4,282.1,1019,281.5,1017.4,281.5z"/>
				</g>
				<g id="XMLID_451_">
					<path id="XMLID_453_" class="st2" d="M794.9,281.5h-30.4c-1.6,0-3.1,0.6-4.2,1.7l-28,28c-1.1,1.1-1.7,2.6-1.7,4.2v99.3
						c0,1.1,0.9,2,2,2h17.7c1.1,0,2-0.9,2-2V309c0-3.3,2.6-5.9,5.9-5.9h43.2c3.3,0,5.9,2.6,5.9,5.9v105.6c0,1.1,0.9,2,2,2h17.7
						c1.1,0,2-0.9,2-2v-99.3c0-1.6-0.6-3.1-1.7-4.2l-28-28C797.9,282.1,796.4,281.5,794.9,281.5z"/>
					<path id="XMLID_452_" class="st2" d="M904.8,311.2l-28-28c-1.1-1.1-2.6-1.7-4.2-1.7h-39.6c-1.1,0-2,0.9-2,2v17.7
						c0,1.1,0.9,2,2,2h45.9c3.3,0,5.9,2.6,5.9,5.9v105.6c0,1.1,0.9,2,2,2h17.7c1.1,0,2-0.9,2-2v-99.3
						C906.5,313.8,905.9,312.3,904.8,311.2z"/>
				</g>
				<g id="XMLID_446_">
					<path id="XMLID_450_" class="st2" d="M671.6,311.2l-28-28c-1.1-1.1-2.6-1.7-4.2-1.7h-25.8c-1.1,0-2,0.9-2,2v17.7
						c0,1.1,0.9,2,2,2h32.2c3.3,0,5.9,2.6,5.9,5.9v72.3c0,1.1,0.9,2,2,2h17.7c1.1,0,2-0.9,2-2v-65.9
						C673.4,313.8,672.7,312.3,671.6,311.2z"/>
					<path id="XMLID_449_" class="st2" d="M653.5,386.9l28,28c1.1,1.1,2.6,1.7,4.2,1.7h25.8c1.1,0,2-0.9,2-2V397c0-1.1-0.9-2-2-2
						h-32.2c-3.3,0-5.9-2.6-5.9-5.9v-72.3c0-1.1-0.9-2-2-2h-17.7c-1.1,0-2,0.9-2,2v65.9C651.8,384.3,652.4,385.8,653.5,386.9z"/>
					<path id="XMLID_448_" class="st2" d="M713.4,282.9v18.8c0,0.8-0.6,1.4-1.4,1.4h-37.3c-0.8,0-1.4-0.6-1.4-1.4v-18.8
						c0-0.8,0.6-1.4,1.4-1.4H712C712.8,281.5,713.4,282.1,713.4,282.9z"/>
					<path id="XMLID_447_" class="st2" d="M649.5,396.4v18.8c0,0.8-0.6,1.4-1.4,1.4h-37.3c-0.8,0-1.4-0.6-1.4-1.4v-18.8
						c0-0.8,0.6-1.4,1.4-1.4h37.3C648.9,395,649.5,395.6,649.5,396.4z"/>
				</g>
				<g id="XMLID_442_">
					<path id="XMLID_445_" class="st2" d="M593.7,317v-33.5c0-1.1-0.9-2-2-2h-17.7c-1.1,0-2,0.9-2,2V314c0,0.7-0.3,1.3-0.9,1.7
						l-85.9,53.5c-4.5,2.9-7.2,7.9-7.2,13.2v32.3c0,1.1,0.9,2,2,2h17.7c1.1,0,2-0.9,2-2v-28.7c0-1,0.5-1.9,1.4-2.5l85.4-53.2
						C591,327.4,593.7,322.4,593.7,317z"/>
					<path id="XMLID_444_" class="st2" d="M586.5,369.1l-27.9-16.3c-1.3-0.8-3,0.1-3,1.7v19.4c0,0.7,0.3,1.3,0.9,1.7l14.3,9.1
						c0.8,0.5,1.4,1.5,1.4,2.5v27.6c0,1.1,0.9,2,2,2h17.7c1.1,0,2-0.9,2-2v-32.3C593.7,377,591,372,586.5,369.1z"/>
					<path id="XMLID_443_" class="st2" d="M485.4,329l27.9,16.3c1.3,0.8,3-0.1,3-1.7v-19.4c0-0.7-0.3-1.3-0.9-1.7l-14.3-9.1
						c-0.8-0.5-1.4-1.5-1.4-2.5v-27.6c0-1.1-0.9-2-2-2h-17.7c-1.1,0-2,0.9-2,2v32.3C478.1,321.2,480.8,326.1,485.4,329z"/>
				</g>
			</g>
		</g>
		<g id="XMLID_417_">
			<g>
				<path id="XMLID_439_" class="st2" d="M140,481.5c0-14.1,10.3-24.9,23.7-24.9c12,0,21.6,8,23.4,19.8h-7.8
					c-1.3-7.7-7.6-13.2-15.5-13.2c-9.5,0-16.1,7.7-16.1,18.3c0,10.7,6.7,18.4,16.1,18.4c7.9,0,14.2-5.5,15.5-13.3h7.8
					c-1.8,11.9-11.4,19.9-23.4,19.9C150.3,506.5,140,495.6,140,481.5z"/>
				<path id="XMLID_436_" class="st2" d="M244.1,481.5c0-14.1,10.5-24.9,24.4-24.9c13.9,0,24.4,10.7,24.4,24.9
					c0,14.1-10.5,25-24.4,25C254.5,506.5,244.1,495.6,244.1,481.5z M285.2,481.5c0-10.3-6.6-18.3-16.7-18.3
					c-10.1,0-16.7,8-16.7,18.3c0,10.3,6.6,18.4,16.7,18.4C278.6,499.9,285.2,491.7,285.2,481.5z"/>
				<path id="XMLID_434_" class="st2" d="M359.3,468.8v36.6h-6.7v-47.9h9l16.1,38.9l16-38.9h9.1v47.9H396v-36.7l-15.2,36.7h-6.3
					L359.3,468.8z"/>
				<path id="XMLID_431_" class="st2" d="M472.6,488.8v16.7h-7.3v-47.9h16.6c10.7,0,17.7,5.5,17.7,15.5c0,10.1-6.9,15.7-17.7,15.7
					H472.6z M472.6,463.8v18.8h9.2c6.5,0,10.4-3.5,10.4-9.5c0-5.9-3.9-9.3-10.4-9.3H472.6z"/>
				<path id="XMLID_429_" class="st2" d="M559.1,505.5v-47.9h7.3v41.3h21.7v6.6H559.1z"/>
				<path id="XMLID_427_" class="st2" d="M647.5,505.5v-47.9h7.3v47.9H647.5z"/>
				<path id="XMLID_424_" class="st2" d="M746.1,493.6h-20.7l-4.4,11.9h-7.4l18.4-47.9h8.1l18.2,47.9h-7.8L746.1,493.6z
					 M727.6,487.7h16.3l-8.1-22.1L727.6,487.7z"/>
				<path id="XMLID_422_" class="st2" d="M823.9,468v37.4H817v-47.9h8l24.6,36.4v-36.4h6.8v47.9h-7.4L823.9,468z"/>
				<path id="XMLID_420_" class="st2" d="M916.2,481.5c0-14.1,10.3-24.9,23.7-24.9c12,0,21.6,8,23.4,19.8h-7.8
					c-1.3-7.7-7.6-13.2-15.5-13.2c-9.5,0-16.1,7.7-16.1,18.3c0,10.7,6.7,18.4,16.1,18.4c7.9,0,14.2-5.5,15.5-13.3h7.8
					c-1.8,11.9-11.4,19.9-23.4,19.9C926.6,506.5,916.2,495.6,916.2,481.5z"/>
				<path id="XMLID_418_" class="st2" d="M1053.5,505.5h-30.4v-47.9h29.9v6.4h-22.6v13.6h20.6v6.4h-20.6v15.1h23V505.5z"/>
			</g>
		</g>
	</g>
</g>
</svg>
